<svg xmlns="http://www.w3.org/2000/svg" xmlns:xlink="http://www.w3.org/1999/xlink" version="1.1" x="0px" y="0px" viewBox="0 0 100 100" enable-background="new 0 0 100 100" xml:space="preserve"><g display="none"><path display="inline" fill="none" stroke="#000000" stroke-width="0.5" stroke-miterlimit="10" d="M19.5,76.333"/><path display="inline" stroke="#000000" stroke-width="0.5" stroke-miterlimit="10" d="M48.5,24.5c0,0-17,39.5-29,51.833h58.667   C78.167,76.333,53.5,43.667,48.5,24.5z M48.833,46C49.917,57.417,65,73.333,65,73.333H48.833V46z"/><path display="inline" stroke="#000000" stroke-width="0.5" stroke-miterlimit="10" d="M45.5,19.875"/><path display="inline" fill="none" stroke="#000000" stroke-width="0.5" stroke-miterlimit="10" d="M50.75,18.813L48.5,24.5   c0,0-1.813-5.438-1.813-5.688"/></g><g display="none"><g display="inline"><path d="M90,67.917c-0.106,0-0.201-0.067-0.236-0.167l-9.03-25.802L75.62,67.716c-0.023,0.117-0.126,0.201-0.245,0.201H11.75    c-0.077,0-0.149-0.035-0.196-0.095c-0.047-0.061-0.064-0.139-0.047-0.213l10-42.167c0.027-0.113,0.127-0.192,0.243-0.192H79    c0.104,0,0.198,0.065,0.234,0.163L94.901,67.58c0.028,0.076,0.018,0.162-0.029,0.229s-0.123,0.107-0.205,0.107H90z"/><path d="M79,25.5l15.667,42.167H90L80.667,41l-5.292,26.667H11.75l10-42.167H79 M79,25H21.75c-0.232,0-0.433,0.159-0.487,0.385    l-10,42.167c-0.035,0.149-0.001,0.306,0.094,0.425c0.095,0.12,0.239,0.19,0.392,0.19h63.625c0.239,0,0.444-0.169,0.49-0.403    L80.8,42.895l8.728,24.936c0.07,0.201,0.259,0.335,0.472,0.335h4.667c0.164,0,0.317-0.08,0.411-0.215    c0.093-0.134,0.115-0.306,0.058-0.46L79.469,25.326C79.396,25.13,79.209,25,79,25L79,25z"/></g><line display="inline" stroke="#000000" stroke-width="0.5" stroke-linecap="round" stroke-linejoin="round" stroke-miterlimit="10" x1="54" y1="75" x2="55.375" y2="67.667"/><line display="inline" stroke="#000000" stroke-width="0.5" stroke-linecap="round" stroke-linejoin="round" stroke-miterlimit="10" x1="19.25" y1="74.375" x2="20.625" y2="67.667"/></g><g display="none"><path display="inline" fill="none" stroke="#000000" stroke-width="0.5" stroke-linecap="round" stroke-linejoin="round" stroke-miterlimit="10" d="   M50.542,56.25L35.958,74.417H22.625l27.917-45.5l26.083,45.5H63.458L50.542,56.25z M75.33,72.157h11.629 M84.542,69.875v6.208    M24.011,72.157h-10.97 M15.125,69.875v6.208 M50.542,28.917l-1.625-3.458L50.542,28.917z M52.583,25.458l-2.042,3.458"/></g><g display="none"><path display="inline" stroke="#000000" stroke-width="0.5" stroke-linecap="round" stroke-linejoin="round" stroke-miterlimit="10" d="   M77.167,71.833L54.167,29C52.333,43,28,71.833,28,71.833H17.333c0,0,19.333-6.667,36-51.833l29.333,51.833H77.167z M54.833,71.833   V38.667C43.167,64.5,33.667,71.833,33.667,71.833H54.833z"/></g><g display="none"><path display="inline" stroke="#000000" stroke-width="0.5" stroke-linecap="round" stroke-linejoin="round" stroke-miterlimit="10" d="   M50,83.375"/><path display="inline" stroke="#000000" stroke-width="0.5" stroke-linecap="round" stroke-linejoin="round" stroke-miterlimit="10" d="   M29.625,72l-6-9.5l27.25-38.125l26.875,38L72.625,72h-10.75l5.375-11.167L50.688,43.5c0,0-4.063,27.75-8.063,28.5H29.625z    M86.75,72v-2.125 M15.625,72v-2.125 M15.792,70.938l7.833-8.438 M86.75,70.938l-9-8.563 M50.688,43.5L61.875,72"/></g><g display="none"><polygon display="inline" stroke="#000000" stroke-width="0.5" stroke-linecap="round" stroke-linejoin="round" stroke-miterlimit="10" points="   83,71.5 79.333,56.5 50.667,27.5 21.167,56.667 17.833,71.5 38.167,71.5 50.417,46.833 62.833,71.5  "/><line display="inline" fill="none" stroke="#000000" stroke-width="0.5" stroke-linecap="round" stroke-linejoin="round" stroke-miterlimit="10" x1="96.75" y1="71.5" x2="96.75" y2="67.125"/><line display="inline" fill="none" stroke="#000000" stroke-width="0.5" stroke-linecap="round" stroke-linejoin="round" stroke-miterlimit="10" x1="96.75" y1="69.313" x2="82.465" y2="69.313"/><line display="inline" fill="none" stroke="#000000" stroke-width="0.5" stroke-linecap="round" stroke-linejoin="round" stroke-miterlimit="10" x1="96.75" y1="71.5" x2="96.75" y2="67.125"/><line display="inline" fill="none" stroke="#000000" stroke-width="0.5" stroke-linecap="round" stroke-linejoin="round" stroke-miterlimit="10" x1="96.75" y1="69.313" x2="82.465" y2="69.313"/><line display="inline" fill="none" stroke="#000000" stroke-width="0.5" stroke-linecap="round" stroke-linejoin="round" stroke-miterlimit="10" x1="4.007" y1="71.5" x2="4.007" y2="67.125"/><line display="inline" fill="none" stroke="#000000" stroke-width="0.5" stroke-linecap="round" stroke-linejoin="round" stroke-miterlimit="10" x1="4.007" y1="69.313" x2="18.292" y2="69.313"/></g><g display="none"><path display="inline" stroke="#000000" stroke-width="0.5" stroke-linecap="round" stroke-linejoin="round" stroke-miterlimit="10" d="   M24.641,70.5h5.672l-2.442-1.602c0,0,3.703-17.753,8.43,1.602h7.012l-3.151-1.602c0,0-1.471-30.437,9.743,1.602h11.135   l-3.887-1.996c0,0,0.42-10.925-0.105-12.815c0,0-1.261-5.252,3.992-5.042c5.252,0.21,6.933,0.525,6.933,0.525   s4.99,1.628,6.775,0.578c1.786-1.05,0-3.624,0-3.624s-3.677-9.612-5.2-8.561c-1.523,1.05-1.155,1.261-1.155,1.261   s-37.921-20.379-44.381,0.814C24.011,41.639,21.647,52.143,24.641,70.5"/></g><g display="none"><polygon display="inline" stroke="#000000" stroke-width="0.5" stroke-miterlimit="10" points="79,74 50,26.5 20.5,74 34.5,74    49.75,37.667 66.167,74  "/><polyline display="inline" fill="none" stroke="#000000" stroke-width="0.25" stroke-miterlimit="10" points="95.167,74 50,26.5    4.333,74  "/></g><g display="none"><polyline display="inline" fill="none" stroke="#000000" stroke-width="0.5" stroke-linecap="round" stroke-linejoin="round" stroke-miterlimit="10" points="   47.75,23.5 74,74.625 56.5,74.625 50,49.063 43.5,74.625 25.875,74.625 52.875,23.5  "/><polyline display="inline" fill="none" stroke="#000000" stroke-width="0.5" stroke-linecap="round" stroke-linejoin="round" stroke-miterlimit="10" points="   79.406,74.625 79.406,72.313 79.406,70  "/><line display="inline" fill="none" stroke="#000000" stroke-width="0.5" stroke-linecap="round" stroke-linejoin="round" stroke-miterlimit="10" x1="72.813" y1="72.313" x2="79.406" y2="72.313"/><line display="inline" fill="none" stroke="#000000" stroke-width="0.5" stroke-linecap="round" stroke-linejoin="round" stroke-miterlimit="10" x1="20.75" y1="74.625" x2="20.75" y2="70"/><line display="inline" fill="none" stroke="#000000" stroke-width="0.5" stroke-linecap="round" stroke-linejoin="round" stroke-miterlimit="10" x1="27.096" y1="72.313" x2="20.75" y2="72.313"/></g><g display="none"><polygon display="inline" fill="none" stroke="#000000" stroke-width="0.5" stroke-linecap="round" stroke-linejoin="round" stroke-miterlimit="10" points="   68.188,75.75 79.688,59.583 50.688,24.25 22.021,59.75 33.188,75.75  "/><line display="inline" fill="none" stroke="#000000" stroke-width="0.5" stroke-linecap="round" stroke-linejoin="round" stroke-miterlimit="10" x1="88.729" y1="75.75" x2="79.688" y2="59.583"/><line display="inline" fill="none" stroke="#000000" stroke-width="0.5" stroke-linecap="round" stroke-linejoin="round" stroke-miterlimit="10" x1="11.271" y1="75.75" x2="22.021" y2="59.75"/><polygon display="inline" fill="none" stroke="#000000" stroke-width="0.5" stroke-linecap="round" stroke-linejoin="round" stroke-miterlimit="10" points="   38.271,75.75 32.438,68.25 50.854,47.333  "/><polygon display="inline" fill="none" stroke="#000000" stroke-width="0.5" stroke-linecap="round" stroke-linejoin="round" stroke-miterlimit="10" points="   63.021,75.75 69.354,67.75 50.854,47.333  "/></g><g display="none"><path display="inline" stroke="#000000" stroke-width="0.5" stroke-linecap="round" stroke-linejoin="round" stroke-miterlimit="10" d="   M45.701,54.25c0,0,4.083,7.167,12.417,11.167s4-5.083,4-5.083s-10.5-7.083-11.25-9.833s0.917-3.083,0.917-3.083   s3.167-1.333-0.167-1.417c-3.333-0.083-3.917,1.833-5.917-2.917S41.118,32,41.118,32s-3.167-5.5-4.25,3.833   c-1.083,9.333,6.083,15.083,6.083,15.083s0.25,1.667-1.583,1.167c-1.833-0.5-3.5-0.417-0.25,4.5s3.333-2.333,3.333-2.333   S45.284,52.583,45.701,54.25z"/></g><g display="none"><circle display="inline" fill="none" stroke="#000000" stroke-miterlimit="10" cx="51.346" cy="36.547" r="2.952"/><g display="inline"><path stroke="#000000" stroke-width="0.25" stroke-linecap="round" stroke-linejoin="round" stroke-miterlimit="10" d="    M51.346,41.279c-7.922,0-14.344,6.422-14.344,14.344s6.422,14.344,14.344,14.344s14.344-6.422,14.344-14.344    S59.268,41.279,51.346,41.279z M51.225,43.395c0.738,0,1.337,0.599,1.337,1.337s-0.599,1.337-1.337,1.337    c-0.738,0-1.337-0.599-1.337-1.337S50.486,43.395,51.225,43.395z M40.626,56.96c-0.738,0-1.337-0.599-1.337-1.337    c0-0.738,0.599-1.337,1.337-1.337s1.337,0.599,1.337,1.337C41.963,56.362,41.365,56.96,40.626,56.96z M51.225,68.178    c-0.738,0-1.337-0.599-1.337-1.337c0-0.738,0.599-1.337,1.337-1.337c0.738,0,1.337,0.599,1.337,1.337    C52.562,67.58,51.963,68.178,51.225,68.178z M51.979,57.124l-8.897,6.321l6.223-8.363l8.946-6.515L51.979,57.124z M62.287,56.96    c-0.738,0-1.337-0.599-1.337-1.337c0-0.738,0.599-1.337,1.337-1.337c0.738,0,1.337,0.599,1.337,1.337    C63.624,56.362,63.026,56.96,62.287,56.96z"/><polygon stroke="#000000" stroke-width="0.25" stroke-linecap="round" stroke-linejoin="round" stroke-miterlimit="10" points="    49.304,55.082 51.979,57.124 51.979,55.082   "/></g></g><g display="none"><path display="inline" stroke="#000000" stroke-width="0.25" stroke-linecap="round" stroke-linejoin="round" stroke-miterlimit="10" d="   M54.083,32.333l5.667,8.417c0,0,0.583,0.583-0.75,1.833c-0.606,0.568-5.262,4.72-10.158,9.079l-10.347-9.956   c0,0-1.524-1.301-0.905-1.935c0.619-0.634,6.336-8.692,6.336-8.692L27.586,48.586l7.945-6.311c0,0,0.536-0.627,1.887,0.604   c0.632,0.576,5.388,5.131,10.268,9.814c-5.504,4.899-10.936,9.724-10.936,9.724l1.083,1.083l10.969-9.736   c5.169,4.961,10.137,9.736,10.137,9.736l0.995-1.165l-9.975-9.598l10.125-8.987c0,0,1.417-1.417,2-0.75   c0.583,0.667,8.167,7,8.167,7L54.083,32.333z"/></g><g display="none"><path display="inline" stroke="#000000" stroke-width="0.25" stroke-linecap="round" stroke-linejoin="round" stroke-miterlimit="10" d="   M58.925,58.088c1.448,0,7.575,0,7.575,0v-2.562h-6.127c0,0,3.676-3.565,4.01-6.35s-1.56-11.92-1.56-11.92s-0.223-1.56-1.671,2.674   c-1.448,4.233-2.562-2.954-2.562-2.954s-0.334-4.51-4.345-7.629c-4.01-3.119-4.679-2.228-4.679-2.228s-1.448-0.668,0.557,2.228   c2.005,2.896-5.124,14.928-5.124,14.928s-1.56,1.114-2.451-1.337c-0.891-2.451-1.894-0.557-1.894-0.557s-1.114,8.244,2.117,11.029   c3.231,2.785-2.896,2.005-2.896,2.005h-4.567v2.785h8.912l-4.567,5.682l2.228,1.448l4.456-5.682h2.674V67h4.122v-7.13h1.448   l6.016,6.016l2.228-2.005l-4.679-4.568C58.145,59.313,57.476,58.088,58.925,58.088z M51.349,58.088   c-6.646-0.58-5.57-9.915-5.57-9.915s1.894,1.225,3.453,1.003c1.56-0.223,0.891-4.345,0.891-4.345s-1.114-1.114,1.225-0.78   c2.339,0.334,2.562,8.355,3.565,7.241c1.003-1.114,2.228-0.557,2.117,1.671C56.919,55.191,51.349,58.088,51.349,58.088z"/></g><g display="none"><path display="inline" stroke="#000000" stroke-miterlimit="10" d="M38.177,37.542v25.813H64.49V37.542H38.177z M58.802,53.417   h-4.75v4.75H47.99v-4.75h-4.75v-6.063h4.75v-4.75h6.063v4.75h4.75V53.417z"/><rect x="46.865" y="32.479" display="inline" fill="none" stroke="#000000" stroke-miterlimit="10" width="8.625" height="5.063"/></g><g display="none"><rect x="45.128" y="34.052" display="inline" stroke="#000000" stroke-width="0.25" stroke-miterlimit="10" width="36.45" height="2.041"/><rect x="45.128" y="49.641" display="inline" stroke="#000000" stroke-width="0.25" stroke-miterlimit="10" width="36.45" height="2.041"/><rect x="45.128" y="44.497" display="inline" stroke="#000000" stroke-width="0.25" stroke-miterlimit="10" width="36.45" height="2.041"/><rect x="45.128" y="39.353" display="inline" stroke="#000000" stroke-width="0.25" stroke-miterlimit="10" width="36.45" height="2.041"/><rect x="20.923" y="65.074" display="inline" stroke="#000000" stroke-width="0.25" stroke-miterlimit="10" width="60.655" height="2.041"/><rect x="20.923" y="59.93" display="inline" stroke="#000000" stroke-width="0.25" stroke-miterlimit="10" width="60.655" height="2.041"/><rect x="20.923" y="54.785" display="inline" stroke="#000000" stroke-width="0.25" stroke-miterlimit="10" width="60.655" height="2.041"/><path display="inline" stroke="#000000" stroke-width="0.25" stroke-miterlimit="10" d="M20.923,34.052v17.63h24.205v-17.63H20.923   z M24.924,49.43l-0.799-0.405l-0.799,0.405l0.153-0.859l-0.646-0.608l0.893-0.125l0.399-0.782l0.399,0.782l0.893,0.125   l-0.646,0.608L24.924,49.43z M24.772,42.822l0.153,0.859l-0.799-0.405l-0.799,0.405l0.153-0.859l-0.646-0.608l0.893-0.125   l0.399-0.782l0.399,0.782l0.893,0.125L24.772,42.822z M24.772,37.266l0.153,0.859l-0.799-0.405l-0.799,0.405l0.153-0.859   l-0.646-0.608l0.893-0.125l0.399-0.782l0.399,0.782l0.893,0.125L24.772,37.266z M29.615,46.956l-0.799-0.406l-0.799,0.406   l0.153-0.859l-0.646-0.608l0.893-0.125l0.399-0.781l0.399,0.781l0.893,0.125l-0.646,0.608L29.615,46.956z M29.462,40.184   l0.153,0.859l-0.799-0.406l-0.799,0.406l0.153-0.859l-0.646-0.608l0.893-0.125l0.399-0.781l0.399,0.781l0.893,0.125L29.462,40.184z    M34.051,49.43l-0.799-0.405l-0.799,0.405l0.153-0.859l-0.646-0.608l0.893-0.125l0.399-0.782l0.399,0.782l0.893,0.125l-0.646,0.608   L34.051,49.43z M33.898,42.822l0.153,0.859l-0.799-0.405l-0.799,0.405l0.153-0.859l-0.646-0.608l0.893-0.125l0.399-0.782   l0.399,0.782l0.893,0.125L33.898,42.822z M33.898,37.266l0.153,0.859l-0.799-0.405l-0.799,0.405l0.153-0.859l-0.646-0.608   l0.893-0.125l0.399-0.782l0.399,0.782l0.893,0.125L33.898,37.266z M38.16,46.956l-0.799-0.406l-0.799,0.406l0.153-0.859   l-0.646-0.608l0.893-0.125l0.399-0.781l0.399,0.781l0.893,0.125l-0.646,0.608L38.16,46.956z M38.008,40.184l0.153,0.859   l-0.799-0.406l-0.799,0.406l0.153-0.859l-0.646-0.608l0.893-0.125l0.399-0.781l0.399,0.781l0.893,0.125L38.008,40.184z    M42.61,49.43l-0.799-0.405l-0.799,0.405l0.153-0.859l-0.646-0.608l0.893-0.125l0.399-0.782l0.399,0.782l0.893,0.125l-0.646,0.608   L42.61,49.43z M42.458,42.822l0.153,0.859l-0.799-0.405l-0.799,0.405l0.153-0.859l-0.646-0.608l0.893-0.125l0.399-0.782   l0.399,0.782l0.893,0.125L42.458,42.822z M42.458,37.266l0.153,0.859l-0.799-0.405l-0.799,0.405l0.153-0.859l-0.646-0.608   l0.893-0.125l0.399-0.782l0.399,0.782l0.893,0.125L42.458,37.266z"/></g><g display="none"><rect x="33.468" y="33.519" display="inline" fill="none" stroke="#000000" stroke-width="0.5" stroke-linecap="round" stroke-linejoin="round" stroke-miterlimit="10" width="31.205" height="10.023"/><rect x="33.468" y="30.729" display="inline" stroke="#000000" stroke-width="0.5" stroke-linecap="round" stroke-linejoin="round" stroke-miterlimit="10" width="31.205" height="2.79"/><path display="inline" stroke="#000000" stroke-width="0.5" stroke-linecap="round" stroke-linejoin="round" stroke-miterlimit="10" d="   M33.468,43.542v25.729h31.205V43.542H33.468z M52.635,66.326c-1.085-0.62-1.085-4.495-1.085-6.2s-1.627-3.1-3.1-2.092   c-1.472,1.007-1.472,3.797-1.472,3.797s0.31,5.347-2.48,4.495s-1.55-5.89-2.17-8.602c-0.62-2.712,1.085-1.317,1.085-1.317   s0.697,1.55,2.48,0.697c1.782-0.852,1.55-6.742,1.55-8.602s1.085-1.472,2.092-0.93c1.007,0.542,3.642,4.417,3.565,6.897   c-0.077,2.48,1.26,0.387,1.26,0.387s0.368-4.572,1.53,0.852C57.053,61.134,52.635,66.326,52.635,66.326z"/><rect x="36.4" y="39.396" display="inline" stroke="#000000" stroke-width="0.5" stroke-linecap="round" stroke-linejoin="round" stroke-miterlimit="10" width="1.86" height="4.146"/><path display="inline" stroke="#000000" stroke-width="0.5" stroke-linecap="round" stroke-linejoin="round" stroke-miterlimit="10" d="   M38.26,39.396c1.86-2.131,0-3.1,0-3.1s-0.736-0.852-1.86,0c0,0-1.86,1.201,0,3.1"/><rect x="41.424" y="39.396" display="inline" stroke="#000000" stroke-width="0.5" stroke-linecap="round" stroke-linejoin="round" stroke-miterlimit="10" width="1.86" height="4.146"/><path display="inline" stroke="#000000" stroke-width="0.5" stroke-linecap="round" stroke-linejoin="round" stroke-miterlimit="10" d="   M43.284,39.396c1.86-2.131,0-3.1,0-3.1s-0.736-0.852-1.86,0c0,0-1.86,1.201,0,3.1"/><rect x="46.384" y="39.396" display="inline" stroke="#000000" stroke-width="0.5" stroke-linecap="round" stroke-linejoin="round" stroke-miterlimit="10" width="1.86" height="4.146"/><path display="inline" stroke="#000000" stroke-width="0.5" stroke-linecap="round" stroke-linejoin="round" stroke-miterlimit="10" d="   M48.244,39.396c1.86-2.131,0-3.1,0-3.1s-0.736-0.852-1.86,0c0,0-1.86,1.201,0,3.1"/><rect x="50.827" y="39.396" display="inline" stroke="#000000" stroke-width="0.5" stroke-linecap="round" stroke-linejoin="round" stroke-miterlimit="10" width="1.86" height="4.146"/><path display="inline" stroke="#000000" stroke-width="0.5" stroke-linecap="round" stroke-linejoin="round" stroke-miterlimit="10" d="   M52.687,39.396c1.86-2.131,0-3.1,0-3.1s-0.736-0.852-1.86,0c0,0-1.86,1.201,0,3.1"/><rect x="60.488" y="39.396" display="inline" stroke="#000000" stroke-width="0.5" stroke-linecap="round" stroke-linejoin="round" stroke-miterlimit="10" width="1.86" height="4.146"/><path display="inline" stroke="#000000" stroke-width="0.5" stroke-linecap="round" stroke-linejoin="round" stroke-miterlimit="10" d="   M62.348,39.396c1.86-2.131,0-3.1,0-3.1s-0.736-0.852-1.86,0c0,0-1.86,1.201,0,3.1"/><rect x="55.658" y="39.396" display="inline" stroke="#000000" stroke-width="0.5" stroke-linecap="round" stroke-linejoin="round" stroke-miterlimit="10" width="1.86" height="4.146"/><path display="inline" stroke="#000000" stroke-width="0.5" stroke-linecap="round" stroke-linejoin="round" stroke-miterlimit="10" d="   M57.518,39.396c1.86-2.131,0-3.1,0-3.1s-0.736-0.852-1.86,0c0,0-1.86,1.201,0,3.1"/></g><g display="none"><path display="inline" stroke="#000000" stroke-width="0.5" stroke-linecap="square" stroke-miterlimit="10" d="M73,61.157"/><path display="inline" stroke="#000000" stroke-width="0.5" stroke-linecap="square" stroke-miterlimit="10" d="M52.375,28.032"/><polygon display="inline" stroke="#000000" stroke-width="0.5" stroke-linecap="round" stroke-linejoin="round" stroke-miterlimit="10" points="   31.125,64.157 31.125,39.032 40,34.157 40,60.282  "/><polygon display="inline" stroke="#000000" stroke-width="0.5" stroke-linecap="round" stroke-linejoin="round" stroke-miterlimit="10" points="   49.625,39.532 58.375,34.157 57.75,61.157 49.625,64.657  "/><line display="inline" stroke="#000000" stroke-width="0.5" stroke-linecap="round" stroke-linejoin="round" stroke-miterlimit="10" x1="40" y1="34.157" x2="49.625" y2="39.532"/><polyline display="inline" fill="none" stroke="#000000" stroke-width="0.5" stroke-linecap="round" stroke-linejoin="round" stroke-miterlimit="10" points="   58.375,34.157 67.375,39.532 67.375,64.657 57.75,61.157  "/><line display="inline" stroke="#000000" stroke-width="0.5" stroke-linecap="round" stroke-linejoin="round" stroke-miterlimit="10" x1="49.625" y1="64.657" x2="40" y2="60.282"/><path display="inline" fill="none" stroke="#000000" stroke-width="0.5" stroke-linecap="round" stroke-linejoin="round" stroke-miterlimit="10" stroke-dasharray="1,1,1,1,1,1" d="   M56,47.282"/><path display="inline" fill="none" stroke="#000000" stroke-width="0.5" stroke-linecap="round" stroke-linejoin="round" stroke-miterlimit="10" d="   M57.75,46.782"/><g display="inline"><g><path fill="none" stroke="#000000" stroke-width="0.25" stroke-linecap="round" stroke-linejoin="round" d="M49.625,53.532     c-0.17,0.019-0.337,0.03-0.499,0.035"/><path fill="none" stroke="#000000" stroke-width="0.25" stroke-linecap="round" stroke-linejoin="round" stroke-dasharray="0.8378,0.8378,0.8378,0.8378" d="     M48.285,53.53c-1.066-0.131-1.941-0.569-2.655-1.157"/><path fill="none" stroke="#000000" stroke-width="0.25" stroke-linecap="round" stroke-linejoin="round" stroke-dasharray="0.8378,0.8378,0.8378,0.8378,0.8378,0.8378" d="     M45.317,52.096c-1.293-1.222-1.996-2.92-2.325-3.938"/><path fill="none" stroke="#000000" stroke-width="0.25" stroke-linecap="round" stroke-linejoin="round" d="M42.872,47.763     c-0.085-0.3-0.122-0.48-0.122-0.48"/></g></g><path display="inline" fill="#000000" stroke="#FFFFFF" stroke-width="0.5" stroke-linecap="round" stroke-linejoin="round" stroke-miterlimit="10" stroke-dasharray="1,1,1,1,1,1" d="   M66.125,50.699"/><g display="inline"><g><path fill="#000000" stroke="#FFFFFF" stroke-width="0.25" stroke-linecap="round" stroke-linejoin="round" d="M58.375,45.532     c0,0-0.069,0.167-0.206,0.452"/><path fill="#000000" stroke="#FFFFFF" stroke-width="0.25" stroke-linecap="round" stroke-linejoin="round" stroke-dasharray="1.0333,1.0333,1.0333,1.0333" d="     M57.695,46.902c-0.455,0.825-1.137,1.919-2.034,2.983"/><path fill="#000000" stroke="#FFFFFF" stroke-width="0.25" stroke-linecap="round" stroke-linejoin="round" stroke-dasharray="1.0333,1.0333,1.0333,1.0333,1.0333,1.0333" d="     M55.321,50.274c-1.217,1.346-2.786,2.58-4.689,3.073"/><path fill="#000000" stroke="#FFFFFF" stroke-width="0.25" stroke-linecap="round" stroke-linejoin="round" d="M50.121,53.46     c-0.163,0.03-0.329,0.054-0.496,0.073"/></g></g><g display="inline"><g><path fill="none" stroke="#000000" stroke-width="0.25" stroke-linecap="round" stroke-linejoin="round" d="M62.75,51.699     c0,0,0.044-0.178,0.111-0.483"/><path fill="none" stroke="#000000" stroke-width="0.25" stroke-linecap="round" stroke-linejoin="round" stroke-dasharray="1.2248,1.2248,1.2248,1.2248" d="     M63.104,50.017c0.223-1.196,0.471-2.836,0.48-4.254"/><path fill="none" stroke="#000000" stroke-width="0.25" stroke-linecap="round" stroke-linejoin="round" stroke-dasharray="1.2248,1.2248,1.2248,1.2248,1.2248,1.2248" d="     M63.571,45.151c-0.121-2.361-1.109-3.724-4.42-0.431"/><path fill="none" stroke="#000000" stroke-width="0.25" stroke-linecap="round" stroke-linejoin="round" d="M58.716,45.166     c-0.111,0.117-0.225,0.239-0.341,0.366"/></g></g><line display="inline" fill="none" stroke="#000000" stroke-width="0.25" stroke-linecap="round" stroke-linejoin="round" stroke-miterlimit="10" x1="62.307" y1="51.115" x2="63.26" y2="52.35"/><line display="inline" fill="none" stroke="#000000" stroke-width="0.25" stroke-linecap="round" stroke-linejoin="round" stroke-miterlimit="10" x1="61.825" y1="52.35" x2="63.584" y2="51.174"/></g><g display="none"><path display="inline" stroke="#000000" stroke-linecap="round" stroke-linejoin="round" stroke-miterlimit="10" d="M41.85,70.895   c-15.657-8.984-11.807-24.128-11.807-24.128h37.86c0,0,3.85,15.144-11.807,24.128H41.85z"/><line display="inline" fill="none" stroke="#000000" stroke-linecap="round" stroke-linejoin="round" stroke-miterlimit="10" x1="31.583" y1="70.895" x2="41.85" y2="70.895"/><line display="inline" fill="none" stroke="#000000" stroke-linecap="round" stroke-linejoin="round" stroke-miterlimit="10" x1="56.096" y1="70.895" x2="68.321" y2="70.895"/><path display="inline" fill="none" stroke="#000000" stroke-linecap="round" stroke-linejoin="round" stroke-miterlimit="10" d="   M68.278,49.576c0,0,18.866-1.735-3.524,13.45"/><path display="inline" fill="none" stroke="#000000" stroke-linecap="round" stroke-linejoin="round" stroke-miterlimit="10" d="   M37.615,23.153c0,0,10.524,5.262,2.31,13.604s0.412,7.444,0.412,7.444"/><path display="inline" fill="none" stroke="#000000" stroke-linecap="round" stroke-linejoin="round" stroke-miterlimit="10" d="   M48.973,43.431c0,0,6.834-6.064,0-9.048s0.962-9.818,0.962-9.818"/><path display="inline" fill="none" stroke="#000000" stroke-linecap="round" stroke-linejoin="round" stroke-miterlimit="10" d="   M59.079,43.431c0,0-3.561-5.198-0.866-9.433s2.938-6.545-0.071-8.182"/></g><g display="none"><path display="inline" stroke="#000000" stroke-linecap="round" stroke-linejoin="round" stroke-miterlimit="10" d="M39.451,70.063   c-2.927-0.11-3.148-3.148-3.148-3.148V46.645h20.711v7.345v12.924c0,0-0.221,3.038-3.148,3.148H39.451z"/><polyline display="inline" fill="none" stroke="#000000" stroke-linecap="round" stroke-linejoin="round" stroke-miterlimit="10" points="   57.014,53.991 63.697,53.991 63.697,62.386 57.014,62.386  "/><g display="inline"><path d="M42.422,43.553c0.138-1.358,0.075-2.729-0.328-3.925c-0.211-0.593-0.513-1.137-0.957-1.536    c-0.203-0.216-0.456-0.383-0.706-0.54l-0.895-0.462c-0.673-0.369-1.244-0.956-1.581-1.63c-0.342-0.671-0.547-1.391-0.591-2.106    c-0.129-1.427,0.134-2.824,0.631-4.105c-0.119,1.363-0.099,2.723,0.142,3.993c0.125,0.634,0.327,1.239,0.644,1.754    c0.293,0.53,0.722,0.952,1.245,1.223l0.906,0.495c0.173,0.078,0.309,0.223,0.464,0.332c0.154,0.114,0.302,0.235,0.419,0.389    c0.525,0.559,0.876,1.261,1.025,1.976C43.168,40.843,42.932,42.283,42.422,43.553z"/></g><g display="inline"><path d="M52.523,43.553c0.042-1.026-0.021-2.038-0.339-2.902c-0.165-0.427-0.385-0.813-0.706-1.091    c-0.146-0.151-0.325-0.269-0.505-0.38l-0.667-0.341c-1.098-0.58-1.603-1.832-1.657-2.885c-0.074-1.084,0.136-2.135,0.569-3.078    c-0.027,1.03,0.002,2.037,0.204,2.967c0.208,0.918,0.624,1.753,1.375,2.126l0.678,0.374c0.241,0.161,0.495,0.331,0.682,0.561    c0.402,0.437,0.67,0.981,0.774,1.531C53.158,41.531,52.965,42.618,52.523,43.553z"/></g><g display="inline"><path d="M46.508,43.553c0.273-1.633,0.319-3.288,0.038-4.836c-0.325-1.564-1.092-2.857-2.472-3.709    c-0.767-0.52-1.298-1.357-1.587-2.204c-0.285-0.862-0.349-1.76-0.253-2.614c0.157-1.717,0.767-3.32,1.607-4.752    c-0.484,1.582-0.811,3.206-0.828,4.788c-0.028,1.569,0.443,3.141,1.655,3.978c0.251,0.224,0.702,0.524,1.006,0.823l0.457,0.504    c0.142,0.175,0.254,0.374,0.376,0.563c0.445,0.782,0.717,1.642,0.807,2.504C47.486,40.324,47.151,42.022,46.508,43.553z"/></g></g><g display="none"><circle display="inline" stroke="#000000" stroke-width="0.25" stroke-linecap="round" stroke-linejoin="round" stroke-miterlimit="10" cx="49.929" cy="64.329" r="3.563"/><path display="inline" fill="none" stroke="#000000" stroke-width="2.5" stroke-linecap="square" stroke-miterlimit="10" d="   M27.133,41.782c5.812-5.875,13.878-9.515,22.795-9.515c8.99,0,17.116,3.7,22.938,9.66"/><path display="inline" fill="none" stroke="#000000" stroke-width="2.5" stroke-linecap="square" stroke-miterlimit="10" d="   M34.694,49.337c3.877-3.94,9.271-6.382,15.235-6.382c6.038,0,11.491,2.504,15.378,6.529"/><path display="inline" fill="none" stroke="#000000" stroke-width="2.5" stroke-linecap="square" stroke-miterlimit="10" d="   M42.251,56.894c1.943-2.006,4.665-3.253,7.678-3.253c3.087,0,5.868,1.309,7.819,3.401"/><path display="inline" stroke="#000000" stroke-width="0.25" stroke-linecap="round" stroke-linejoin="round" stroke-miterlimit="10" d="   M49.929,64.329"/><path display="inline" fill="none" stroke="#000000" stroke-linecap="round" stroke-linejoin="round" stroke-miterlimit="10" d="   M24.192,35.994"/></g><g display="none"><path display="inline" fill="none" stroke="#000000" stroke-width="0.5" stroke-linecap="round" stroke-linejoin="round" stroke-miterlimit="10" d="   M66.815,34.662c-0.688,1.625-5.125,10.313-19.25,15.563S30.378,65.099,30.378,65.099s-6.25-7.375,2.5-21.25   s20.125-14.875,20.125-14.875s9.375-2.5,14.375,3.375C67.378,32.349,67.503,33.037,66.815,34.662z M44.565,51.224 M35.044,69.724   c1.917,1.5,7.667,2.847,15.083,0.75c7.417-2.097,14.917-9.25,19.583-18.958s0-16.292,0-16.292s-6.417,13.25-20.667,17.417   S32.461,67.808,32.461,67.808S33.128,68.224,35.044,69.724z"/><path display="inline" fill="none" stroke="#000000" stroke-miterlimit="10" d="M92.917,23.833"/></g><g display="none"><path display="inline" fill="none" stroke="#000000" stroke-width="0.5" stroke-linecap="round" stroke-linejoin="round" stroke-miterlimit="10" d="   M126.333,60.833"/></g><g><path fill="none" stroke="#000000" stroke-width="0.5" stroke-linecap="round" stroke-linejoin="round" stroke-miterlimit="10" d="   M66.815,34.662c-0.688,1.625-5.125,10.313-19.25,15.563S30.378,65.099,30.378,65.099s-6.25-7.375,2.5-21.25   s20.125-14.875,20.125-14.875s9.375-2.5,14.375,3.375C67.378,32.349,67.503,33.037,66.815,34.662z M44.565,51.224 M35.044,69.724   c1.917,1.5,7.667,2.847,15.083,0.75c7.417-2.097,14.917-9.25,19.583-18.958s0-16.292,0-16.292s-6.417,13.25-20.667,17.417   S32.461,67.808,32.461,67.808S33.128,68.224,35.044,69.724z"/><path fill="none" stroke="#000000" stroke-width="0.25" stroke-linecap="round" stroke-linejoin="round" stroke-miterlimit="10" d="   M44.813,33.023c4.544-2.69,8.039-2.997,8.039-2.997s7.315-1.951,12.221,1.838 M44.837,51.163 M35.792,68.738   c1.821,1.425,7.283,2.704,14.329,0.712c3.539-1,7.097-3.213,10.325-6.335"/><path fill="none" stroke="#000000" stroke-width="0.25" stroke-linecap="round" stroke-linejoin="round" stroke-miterlimit="10" d="   M46.059,33.368c3.821-2.043,6.643-2.292,6.643-2.292s4.394-1.172,8.532,0.163 M45.109,51.102 M36.872,67.983   c1.994,1.248,6.952,2.222,13.243,0.444c2.403-0.679,4.816-1.949,7.116-3.702"/><path fill="none" stroke="#000000" stroke-width="0.25" stroke-linecap="round" stroke-linejoin="round" stroke-miterlimit="10" d="   M48.941,32.977c2.191-0.828,3.626-0.954,3.626-0.954s3.735-0.996,7.466-0.03 M45.353,51.047 M39.777,67.975   c2.412,0.609,6.047,0.743,10.332-0.469c0.266-0.075,0.531-0.158,0.797-0.248"/></g></svg>
